REM DIRINDEX 1\2,1\3,1\4,1\5
REM DIRNAME cjc004,folder01,folder02,folder03,folder04
TITLE ""
FILE "1Q_t_1119-1128.mp3" MP3
  TRACK 01 AUDIO
    TITLE "3:cjc004_4261"
    INDEX 01 00:00:00
  TRACK 02 AUDIO
    TITLE "0:"
    INDEX 01 00:00:64
  TRACK 03 AUDIO
    TITLE "4:cjc004_4262"
    INDEX 01 00:01:21
  TRACK 04 AUDIO
    TITLE "0:"
    INDEX 01 00:02:30
  TRACK 05 AUDIO
    TITLE "5:cjc004_4263"
    INDEX 01 00:02:51
  TRACK 06 AUDIO
    TITLE "0:"
    INDEX 01 00:07:45
  TRACK 07 AUDIO
    TITLE "3:cjc004_4264"
    INDEX 01 00:08:21
  TRACK 08 AUDIO
    TITLE "0:"
    INDEX 01 00:09:36
  TRACK 09 AUDIO
    TITLE "4:cjc004_4265"
    INDEX 01 00:09:65
  TRACK 10 AUDIO
    TITLE "0:"
    INDEX 01 00:11:27
  TRACK 11 AUDIO
    TITLE "5:cjc004_4266"
    INDEX 01 00:11:58
  TRACK 12 AUDIO
    TITLE "0:"
    INDEX 01 00:15:60
  TRACK 13 AUDIO
    TITLE "3:cjc004_4267"
    INDEX 01 00:16:34
  TRACK 14 AUDIO
    TITLE "0:"
    INDEX 01 00:17:69
  TRACK 15 AUDIO
    TITLE "4:cjc004_4268"
    INDEX 01 00:18:13
  TRACK 16 AUDIO
    TITLE "0:"
    INDEX 01 00:19:30
  TRACK 17 AUDIO
    TITLE "5:cjc004_4269"
    INDEX 01 00:19:60
  TRACK 18 AUDIO
    TITLE "0:"
    INDEX 01 00:23:63
  TRACK 19 AUDIO
    TITLE "3:cjc004_4270"
    INDEX 01 00:24:47
  TRACK 20 AUDIO
    TITLE "0:"
    INDEX 01 00:25:70
  TRACK 21 AUDIO
    TITLE "4:cjc004_4271"
    INDEX 01 00:26:28
  TRACK 22 AUDIO
    TITLE "0:"
    INDEX 01 00:27:36
  TRACK 23 AUDIO
    TITLE "5:cjc004_4272"
    INDEX 01 00:27:63
  TRACK 24 AUDIO
    TITLE "0:"
    INDEX 01 00:32:39
  TRACK 25 AUDIO
    TITLE "3:cjc004_4273"
    INDEX 01 00:33:17
  TRACK 26 AUDIO
    TITLE "0:"
    INDEX 01 00:34:30
  TRACK 27 AUDIO
    TITLE "4:cjc004_4274"
    INDEX 01 00:34:59
  TRACK 28 AUDIO
    TITLE "0:"
    INDEX 01 00:35:72
  TRACK 29 AUDIO
    TITLE "5:cjc004_4275"
    INDEX 01 00:36:35
  TRACK 30 AUDIO
    TITLE "0:"
    INDEX 01 00:40:07
  TRACK 31 AUDIO
    TITLE "3:cjc004_4276"
    INDEX 01 00:40:62
  TRACK 32 AUDIO
    TITLE "0:"
    INDEX 01 00:42:10
  TRACK 33 AUDIO
    TITLE "4:cjc004_4277"
    INDEX 01 00:42:37
  TRACK 34 AUDIO
    TITLE "0:"
    INDEX 01 00:43:54
  TRACK 35 AUDIO
    TITLE "5:cjc004_4278"
    INDEX 01 00:44:01
  TRACK 36 AUDIO
    TITLE "0:"
    INDEX 01 00:49:45
  TRACK 37 AUDIO
    TITLE "3:cjc004_4279"
    INDEX 01 00:50:23
  TRACK 38 AUDIO
    TITLE "0:"
    INDEX 01 00:51:24
  TRACK 39 AUDIO
    TITLE "4:cjc004_4280"
    INDEX 01 00:51:54
  TRACK 40 AUDIO
    TITLE "0:"
    INDEX 01 00:53:39
  TRACK 41 AUDIO
    TITLE "5:cjc004_4281"
    INDEX 01 00:53:68
  TRACK 42 AUDIO
    TITLE "0:"
    INDEX 01 00:58:36
  TRACK 43 AUDIO
    TITLE "3:cjc004_4282"
    INDEX 01 00:59:12
  TRACK 44 AUDIO
    TITLE "0:"
    INDEX 01 01:00:15
  TRACK 45 AUDIO
    TITLE "4:cjc004_4283"
    INDEX 01 01:00:47
  TRACK 46 AUDIO
    TITLE "0:"
    INDEX 01 01:01:66
  TRACK 47 AUDIO
    TITLE "5:cjc004_4284"
    INDEX 01 01:02:18
  TRACK 48 AUDIO
    TITLE "0:"
    INDEX 01 01:06:42
  TRACK 49 AUDIO
    TITLE "3:cjc004_4285"
    INDEX 01 01:07:17
  TRACK 50 AUDIO
    TITLE "0:"
    INDEX 01 01:08:36
  TRACK 51 AUDIO
    TITLE "4:cjc004_4286"
    INDEX 01 01:08:66
  TRACK 52 AUDIO
    TITLE "0:"
    INDEX 01 01:10:00
  TRACK 53 AUDIO
    TITLE "5:cjc004_4287"
    INDEX 01 01:10:30
  TRACK 54 AUDIO
    TITLE "0:"
    INDEX 01 01:14:51
  TRACK 55 AUDIO
    TITLE "3:cjc004_4288"
    INDEX 01 01:15:27
  TRACK 56 AUDIO
    TITLE "0:"
    INDEX 01 01:16:24
  TRACK 57 AUDIO
    TITLE "4:cjc004_4289"
    INDEX 01 01:16:56
  TRACK 58 AUDIO
    TITLE "0:"
    INDEX 01 01:17:67
  TRACK 59 AUDIO
    TITLE "5:cjc004_4290"
    INDEX 01 01:18:15
  TRACK 60 AUDIO
    TITLE "0:"
    INDEX 01 01:24:10
